<?xml version="1.0" encoding="UTF-8" standalone="no"?>
<!DOCTYPE svg PUBLIC "-//W3C//DTD SVG 1.1//EN"
 "http://www.w3.org/Graphics/SVG/1.1/DTD/svg11.dtd">
<!-- Generated by graphviz version 2.40.1 (20161225.0304)
 -->
<!-- Title: state transitions Pages: 1 -->
<svg width="520pt" height="188pt"
 viewBox="0.00 0.00 520.00 188.00" xmlns="http://www.w3.org/2000/svg" xmlns:xlink="http://www.w3.org/1999/xlink">
<g id="graph0" class="graph" transform="scale(1 1) rotate(0) translate(4 184)">
<title>state transitions</title>
<polygon fill="#ffffff" stroke="transparent" points="-4,4 -4,-184 516,-184 516,4 -4,4"/>
<g id="clust1" class="cluster state regular">
<title>cluster_next_state</title>
<path fill="none" stroke="#000000" stroke-width="2" d="M20,-8C20,-8 492,-8 492,-8 498,-8 504,-14 504,-20 504,-20 504,-160 504,-160 504,-166 498,-172 492,-172 492,-172 20,-172 20,-172 14,-172 8,-166 8,-160 8,-160 8,-20 8,-20 8,-14 14,-8 20,-8"/>
<text text-anchor="start" x="228.8208" y="-153.2" font-family="Helvetica,sans-Serif" font-size="12.00" fill="#000000">next_state</text>
</g>
<!-- next_state -->
<!-- IDLE -->
<g id="node2" class="node state regular">
<title>IDLE</title>
<polygon fill="#ffffff" fill-opacity="0.003922" stroke="transparent" stroke-width="2" points="260,-134 204,-134 204,-98 260,-98 260,-134"/>
<text text-anchor="start" x="218.6644" y="-112.2" font-family="Helvetica,sans-Serif" font-size="12.00" fill="#000000">IDLE</text>
<path fill="none" stroke="#000000" stroke-width="2" d="M216.3333,-99C216.3333,-99 247.6667,-99 247.6667,-99 253.3333,-99 259,-104.6667 259,-110.3333 259,-110.3333 259,-121.6667 259,-121.6667 259,-127.3333 253.3333,-133 247.6667,-133 247.6667,-133 216.3333,-133 216.3333,-133 210.6667,-133 205,-127.3333 205,-121.6667 205,-121.6667 205,-110.3333 205,-110.3333 205,-104.6667 210.6667,-99 216.3333,-99"/>
</g>
<!-- IDLE&#45;&gt;IDLE -->
<g id="edge3" class="edge transition">
<title>IDLE&#45;&gt;IDLE</title>
<path fill="none" stroke="#000000" d="M260.0183,-120.8247C271.888,-121.1883 282,-119.5801 282,-116 282,-113.5387 277.2205,-112.0094 270.3762,-111.4121"/>
<polygon fill="#000000" stroke="#000000" points="270.0957,-107.9049 260.0183,-111.1753 269.9356,-114.903 270.0957,-107.9049"/>
<text text-anchor="start" x="282" y="-119" font-family="Helvetica,sans-Serif" font-size="10.00" fill="#000000">not (req_0 == 1&#39;b1) &#160;&#160;</text>
<text text-anchor="start" x="282" y="-107" font-family="Helvetica,sans-Serif" font-size="10.00" fill="#000000">not (req_1 == 1&#39;b1) &#160;&#160;</text>
</g>
<!-- GNT0 -->
<g id="node3" class="node state regular">
<title>GNT0</title>
<polygon fill="#ffffff" fill-opacity="0.003922" stroke="transparent" stroke-width="2" points="138,-52 82,-52 82,-16 138,-16 138,-52"/>
<text text-anchor="start" x="94.0004" y="-30.2" font-family="Helvetica,sans-Serif" font-size="12.00" fill="#000000">GNT0</text>
<path fill="none" stroke="#000000" stroke-width="2" d="M94.3333,-17C94.3333,-17 125.6667,-17 125.6667,-17 131.3333,-17 137,-22.6667 137,-28.3333 137,-28.3333 137,-39.6667 137,-39.6667 137,-45.3333 131.3333,-51 125.6667,-51 125.6667,-51 94.3333,-51 94.3333,-51 88.6667,-51 83,-45.3333 83,-39.6667 83,-39.6667 83,-28.3333 83,-28.3333 83,-22.6667 88.6667,-17 94.3333,-17"/>
</g>
<!-- IDLE&#45;&gt;GNT0 -->
<g id="edge1" class="edge transition">
<title>IDLE&#45;&gt;GNT0</title>
<path fill="none" stroke="#000000" d="M204.9242,-97.8015C187.3919,-86.0175 164.3774,-70.5487 145.4007,-57.7939"/>
<polygon fill="#000000" stroke="#000000" points="147.252,-54.8212 137.0001,-52.1476 143.3472,-60.6308 147.252,-54.8212"/>
<text text-anchor="start" x="179" y="-72" font-family="Helvetica,sans-Serif" font-size="10.00" fill="#000000">req_0 == 1&#39;b1 &#160;&#160;</text>
</g>
<!-- GNT1 -->
<g id="node4" class="node state regular">
<title>GNT1</title>
<polygon fill="#ffffff" fill-opacity="0.003922" stroke="transparent" stroke-width="2" points="363,-52 307,-52 307,-16 363,-16 363,-52"/>
<text text-anchor="start" x="319.0004" y="-30.2" font-family="Helvetica,sans-Serif" font-size="12.00" fill="#000000">GNT1</text>
<path fill="none" stroke="#000000" stroke-width="2" d="M319.3333,-17C319.3333,-17 350.6667,-17 350.6667,-17 356.3333,-17 362,-22.6667 362,-28.3333 362,-28.3333 362,-39.6667 362,-39.6667 362,-45.3333 356.3333,-51 350.6667,-51 350.6667,-51 319.3333,-51 319.3333,-51 313.6667,-51 308,-45.3333 308,-39.6667 308,-39.6667 308,-28.3333 308,-28.3333 308,-22.6667 313.6667,-17 319.3333,-17"/>
</g>
<!-- IDLE&#45;&gt;GNT1 -->
<g id="edge2" class="edge transition">
<title>IDLE&#45;&gt;GNT1</title>
<path fill="none" stroke="#000000" d="M254.859,-97.8015C269.3942,-86.2298 288.3925,-71.105 304.2432,-58.486"/>
<polygon fill="#000000" stroke="#000000" points="306.5613,-61.1143 312.2049,-52.1476 302.2014,-55.6378 306.5613,-61.1143"/>
<text text-anchor="start" x="290" y="-72" font-family="Helvetica,sans-Serif" font-size="10.00" fill="#000000">req_1 == 1&#39;b1 &#160;&#160;</text>
</g>
<!-- GNT0&#45;&gt;IDLE -->
<g id="edge5" class="edge transition">
<title>GNT0&#45;&gt;IDLE</title>
<path fill="none" stroke="#000000" d="M81.8463,-47.7317C67.1062,-56.7674 53.9504,-69.0864 63.642,-81 79.6878,-100.7247 148.9226,-109.6963 193.4574,-113.4918"/>
<polygon fill="#000000" stroke="#000000" points="193.4045,-116.9986 203.6519,-114.3077 193.963,-110.0209 193.4045,-116.9986"/>
<text text-anchor="start" x="63" y="-72" font-family="Helvetica,sans-Serif" font-size="10.00" fill="#000000">not (req_0 == 1&#39;b1) &#160;&#160;</text>
</g>
<!-- GNT0&#45;&gt;GNT0 -->
<g id="edge4" class="edge transition">
<title>GNT0&#45;&gt;GNT0</title>
<path fill="none" stroke="#000000" d="M138.0183,-38.8247C149.888,-39.1883 160,-37.5801 160,-34 160,-31.5387 155.2205,-30.0094 148.3762,-29.4121"/>
<polygon fill="#000000" stroke="#000000" points="148.0957,-25.9049 138.0183,-29.1753 147.9356,-32.903 148.0957,-25.9049"/>
<text text-anchor="start" x="160" y="-31" font-family="Helvetica,sans-Serif" font-size="10.00" fill="#000000">req_0 == 1&#39;b1 &#160;&#160;</text>
</g>
<!-- GNT1&#45;&gt;IDLE -->
<g id="edge7" class="edge transition">
<title>GNT1&#45;&gt;IDLE</title>
<path fill="none" stroke="#000000" d="M357.8339,-52.3617C366.1449,-61.2608 371.974,-71.9533 365,-81 353.4571,-95.9735 305.2974,-105.8154 270.2422,-111.1445"/>
<polygon fill="#000000" stroke="#000000" points="269.6842,-107.6887 260.292,-112.5913 270.6915,-114.6159 269.6842,-107.6887"/>
<text text-anchor="start" x="368" y="-72" font-family="Helvetica,sans-Serif" font-size="10.00" fill="#000000">not (req_1 == 1&#39;b1) &#160;&#160;</text>
</g>
<!-- GNT1&#45;&gt;GNT1 -->
<g id="edge6" class="edge transition">
<title>GNT1&#45;&gt;GNT1</title>
<path fill="none" stroke="#000000" d="M363.0183,-38.8247C374.888,-39.1883 385,-37.5801 385,-34 385,-31.5387 380.2205,-30.0094 373.3762,-29.4121"/>
<polygon fill="#000000" stroke="#000000" points="373.0957,-25.9049 363.0183,-29.1753 372.9356,-32.903 373.0957,-25.9049"/>
<text text-anchor="start" x="385" y="-31" font-family="Helvetica,sans-Serif" font-size="10.00" fill="#000000">req_1 == 1&#39;b1 &#160;&#160;</text>
</g>
</g>
</svg>
